<svg width="124" height="48" viewBox="0 0 124 48" fill="none" xmlns="http://www.w3.org/2000/svg">
<path d="M118.557 43.1016L120.618 38.293H122.709L119.916 44.8789C119.657 45.4962 119.373 46.0389 119.064 46.5068C118.766 46.9847 118.412 47.3535 118.004 47.6123C117.596 47.871 117.103 48 116.525 48C116.217 48 115.943 47.9802 115.704 47.9404C115.465 47.9106 115.231 47.8503 115.002 47.7607V46.3428C115.171 46.4025 115.326 46.442 115.466 46.4619C115.615 46.4818 115.764 46.4922 115.913 46.4922C116.321 46.4922 116.635 46.3972 116.854 46.208C117.083 46.0188 117.312 45.6999 117.541 45.252L114.375 38.293H116.48L118.557 43.1016ZM77.8584 38.1436C79.1825 38.1436 80.1532 38.4672 80.7705 39.1143C81.3977 39.7514 81.7119 40.6572 81.7119 41.832C81.7119 43.0069 81.4034 43.9183 80.7861 44.5654C80.1688 45.2026 79.1925 45.5205 77.8584 45.5205C76.5344 45.5205 75.5635 45.2026 74.9463 44.5654C74.329 43.9183 74.0205 43.0069 74.0205 41.832C74.0205 40.6574 74.3292 39.7514 74.9463 39.1143C75.5735 38.4672 76.5443 38.1436 77.8584 38.1436ZM110.376 38.1436C111.441 38.1436 112.262 38.3628 112.84 38.8008C113.427 39.2289 113.721 39.9205 113.721 40.876V45.3721H111.974L111.869 44.7295C111.59 44.9783 111.247 45.1721 110.839 45.3115C110.431 45.4509 109.918 45.5205 109.301 45.5205C108.853 45.5205 108.434 45.4415 108.046 45.2822C107.668 45.113 107.359 44.8684 107.12 44.5498C106.891 44.2213 106.776 43.813 106.776 43.3252C106.776 42.6286 107.02 42.0714 107.508 41.6533C108.006 41.2352 108.738 41.0255 109.703 41.0254H111.794V40.8311C111.794 40.3932 111.67 40.0844 111.421 39.9053C111.182 39.7262 110.694 39.6367 109.957 39.6367C109.151 39.6368 108.374 39.761 107.628 40.0098V38.5918C107.956 38.4624 108.354 38.357 108.822 38.2773C109.3 38.1877 109.818 38.1436 110.376 38.1436ZM87.6533 39.667C87.3846 39.7068 87.0909 39.7661 86.7725 39.8457C86.454 39.9253 86.15 40.0147 85.8613 40.1143C85.5726 40.2138 85.328 40.3192 85.1289 40.4287V45.3721H83.1133V38.293H84.9795L85.0693 39.0244C85.3879 38.8253 85.7812 38.6456 86.249 38.4863C86.7269 38.3171 87.1953 38.2033 87.6533 38.1436V39.667ZM99.2363 42.8926L100.416 39.2041V38.293H101.954L103.299 42.8926L104.344 38.293H106.345L104.493 45.3721H102.642L101.282 41.2344L99.8936 45.3721H98.0117L96.1445 38.293H98.1611L99.2363 42.8926ZM65.5088 42.25L67.0771 37.0078V35.7539H68.7197L70.5723 42.2656L72.0654 35.7539H74.0371L71.8115 45.3711H69.8994L68.1377 39.2188L66.2412 45.3711H64.3145L62.0742 35.7539H64.0605L65.5088 42.25ZM90.7002 40.8467L93.3438 38.293H95.6436L92.791 41.1895L95.8086 45.3711H93.6729L91.5225 42.25L90.7002 43.042V45.3711H88.6846V35.3057H90.7002V40.8467ZM109.748 42.2803C108.962 42.2804 108.568 42.6039 108.568 43.251C108.568 43.8781 108.997 44.1913 109.853 44.1914C110.3 44.1914 110.689 44.1171 111.018 43.9678C111.346 43.8185 111.605 43.6292 111.794 43.4004V42.2803H109.748ZM77.8584 39.8604C77.2214 39.8604 76.7631 40.01 76.4844 40.3086C76.2057 40.5973 76.0664 41.1053 76.0664 41.832C76.0664 42.5586 76.2058 43.0714 76.4844 43.3701C76.7631 43.6588 77.2214 43.8037 77.8584 43.8037C78.5056 43.8037 78.9693 43.6588 79.248 43.3701C79.5266 43.0714 79.666 42.5586 79.666 41.832C79.666 41.1054 79.5267 40.5973 79.248 40.3086C78.9693 40.0099 78.5056 39.8604 77.8584 39.8604Z" fill="#141A1F"/>
<path d="M42.7607 3.48926C49.5655 3.48926 55.082 9.00574 55.082 15.8105V29.46L55.0811 29.6289C55.036 32.9585 53.6689 35.971 51.4844 38.1611V45.0322H50.0664C49.5156 45.0322 48.934 44.874 48.416 44.6855C47.8727 44.4878 47.2832 44.2132 46.6836 43.8926C45.6257 43.3269 44.4702 42.582 43.3779 41.7646C43.2232 41.7724 43.0674 41.7774 42.9111 41.7793L42.7607 41.7803H34.8018C31.926 41.7803 29.282 40.7929 27.1855 39.1416C28.0225 38.5569 28.7249 37.8816 29.2959 37.1826C30.8485 38.2914 32.7485 38.9453 34.8018 38.9453H42.877C43.1456 38.942 43.412 38.9266 43.6758 38.9014L44.2373 38.8486L44.6816 39.1943C45.7869 40.0552 46.9781 40.8357 48.0195 41.3926C48.2402 41.5106 48.4514 41.6155 48.6494 41.709V36.9238L49.1162 36.502C49.9017 35.7926 50.5651 34.9531 51.0781 34.0195H38.1816V31.0752H52.1094C52.1923 30.5916 52.2393 30.0956 52.2461 29.5898L52.2471 29.46V27.2598H41.4531V24.3154H52.2471V20.499H44.3965V17.5547H52.2471V15.8105C52.2471 10.5714 47.9998 6.32422 42.7607 6.32422H34.8018C34.7386 6.32422 34.6752 6.32787 34.6123 6.3291C34.3158 5.35513 33.9071 4.43055 33.4043 3.56738C33.8628 3.51563 34.3294 3.48926 34.8018 3.48926H42.7607Z" fill="#141A1F"/>
<path d="M21.6084 0C27.0685 0.000163082 31.6273 3.85952 32.7061 8.99902C34.287 14.3042 36.0976 23.7574 36.1104 23.8242H30.5488V26.7686H25.3154C25.3154 28.5676 27.1263 31.0378 29.5137 31.0381C29.5135 33.0009 26.754 38.0537 20.7354 38.0537H12.3398C6.0771 38.0536 1 32.9767 1 26.7139V11.3398C1.00002 5.07707 6.07711 6.06327e-05 12.3398 0H21.6084ZM25.2061 12.6484C24.0018 12.6485 23.0254 13.6248 23.0254 14.8291C23.0254 16.0334 24.0017 17.0097 25.2061 17.0098C26.4104 17.0098 27.3867 16.0335 27.3867 14.8291C27.3867 13.6247 26.4104 12.6484 25.2061 12.6484Z" fill="#4A69E8"/>
<path d="M101.714 3.37695C102.061 4.02979 102.387 4.74374 102.692 5.51758L102.804 5.80176C103.055 6.45319 103.252 7.0205 103.395 7.50293L103.423 7.59863L103.33 7.63184L101.531 8.28027H107.11V11.1973H100.874V14.4854H106.441V14.834C106.441 14.9788 106.431 15.1428 106.411 15.3252V15.8105C106.35 18.2849 106.279 20.3846 106.198 22.1094C106.137 23.8325 106.056 25.2435 105.954 26.3408C105.873 27.4359 105.762 28.2932 105.618 28.9092C105.496 29.5204 105.34 29.9739 105.146 30.2559C104.876 30.6502 104.579 30.9294 104.253 31.082C103.957 31.2499 103.602 31.3638 103.19 31.4258H103.191C102.838 31.4881 102.395 31.5186 101.864 31.5186C101.356 31.5186 100.827 31.5086 100.278 31.4883L100.188 31.4844L100.179 31.3945C100.139 31.0155 100.058 30.5844 99.9375 30.1016L99.8906 29.9326C99.7773 29.5449 99.6342 29.2051 99.4619 28.9121L99.3594 28.7373L99.5605 28.7539C100.067 28.7944 100.532 28.8245 100.957 28.8447C101.383 28.865 101.695 28.875 101.896 28.875C102.111 28.8749 102.265 28.8452 102.365 28.7949L102.403 28.7734C102.494 28.7188 102.59 28.6276 102.691 28.4932C102.743 28.4153 102.795 28.2916 102.844 28.1152C102.893 27.9384 102.937 27.7145 102.978 27.4434V27.4414L102.979 27.4404C103.079 26.8982 103.17 26.1212 103.251 25.1084C103.332 24.0761 103.402 22.7486 103.463 21.127L103.485 20.4951C103.517 19.5502 103.546 18.4994 103.572 17.3428H100.836C100.79 18.4737 100.701 19.6391 100.569 20.8379C100.386 22.6913 99.9886 24.5441 99.3779 26.3965C98.786 28.2536 97.8581 30.0383 96.5947 31.75L96.5225 31.8477L96.4365 31.7617C96.1774 31.5026 95.8463 31.2221 95.4434 30.9199L95.4414 30.918C95.059 30.6161 94.6871 30.3553 94.3262 30.1348L94.2295 30.0752L94.2959 29.9834L94.4033 29.835C95.4981 28.3078 96.2985 26.7349 96.8057 25.1162C97.331 23.4189 97.6744 21.7523 97.8359 20.1172L97.8652 19.8105C98.0075 18.2855 98.0791 16.85 98.0791 15.5039V11.1973H94.9756V8.28027H100.527C100.42 7.82408 100.262 7.30874 100.051 6.73535L99.9414 6.44531C99.6379 5.65627 99.3342 4.93837 99.0312 4.29199L98.9814 4.18457L99.0938 4.14746L101.672 3.29883L101.714 3.37695ZM71.335 7.39453H70.0264V31.8232H67.627V26.0547C66.8241 26.2363 66.0247 26.4139 65.2295 26.5879C63.9519 26.8718 62.7651 27.1355 61.6699 27.3789L61.5674 27.4014L60.9727 24.7568L61.083 24.7393C61.5949 24.6574 62.1534 24.5619 62.7588 24.4541V7.39453H61.2988V4.59863H71.335V7.39453ZM83.8682 3.48633L83.877 4.48535C83.9013 6.8045 83.9496 9.04614 84.0205 11.21L84.0596 12.1211C84.065 12.2406 84.0706 12.3599 84.0762 12.4785H89.4961V15.1523H84.2197C84.2794 16.1439 84.3445 17.1 84.416 18.0205C84.5236 19.2511 84.6419 20.3897 84.7705 21.4365C85.6329 19.8572 86.3391 18.1537 86.8877 16.3252L86.9238 16.2051L87.0352 16.2617L89.3369 17.4287L89.3086 17.5137C88.6167 19.5894 87.7306 21.5136 86.6514 23.2852C86.25 23.9566 85.8282 24.6018 85.3857 25.2207C85.5507 25.9745 85.7222 26.607 85.9004 27.1182L85.96 27.2744C86.1014 27.6272 86.2469 27.8937 86.3936 28.0781C86.5602 28.2876 86.7194 28.3796 86.8691 28.3887C86.9173 28.3871 86.9941 28.345 87.0859 28.1709C87.1757 28.0008 87.2614 27.7377 87.3418 27.376L87.3721 27.2373C87.518 26.5278 87.6292 25.5756 87.7051 24.3799L87.7227 24.1035L87.8926 24.3223C88.0295 24.4982 88.2069 24.6856 88.4258 24.8848C88.666 25.0849 88.906 25.2651 89.1455 25.4248C89.3898 25.5877 89.5762 25.7222 89.7021 25.8271L89.7461 25.8643L89.7383 25.9219C89.5477 27.3507 89.3028 28.4822 89.002 29.3125L88.9414 29.4746C88.6153 30.3102 88.2629 30.899 87.877 31.2207C87.5216 31.5537 87.1537 31.7313 86.7754 31.7314H86.7725C85.9049 31.7107 85.1658 31.2483 84.5557 30.3721L84.4971 30.2861C84.0601 29.6307 83.6776 28.7777 83.3467 27.7305C83.3306 27.7479 83.315 27.7658 83.2988 27.7832L83.0479 28.0488C81.725 29.4327 80.3402 30.6138 78.8936 31.5918L78.8115 31.6484L78.751 31.5684C78.5725 31.3304 78.3225 31.05 78 30.7275C77.6784 30.4262 77.3883 30.1752 77.1289 29.9756L77.0107 29.8857L77.1348 29.8047C77.8548 29.3351 78.5565 28.8113 79.2393 28.2334H77.7871V27.4424H74.3164V29.6328H71.8545V16.3721H80.1875V27.3848C80.4962 27.0929 80.8009 26.7888 81.1016 26.4736L81.3389 26.2227C81.7879 25.7375 82.2179 25.2282 82.6309 24.6963C82.3912 23.3757 82.1867 21.9069 82.0166 20.291C81.8498 18.6922 81.7112 16.979 81.6016 15.1523H70.7598V12.4785H72.5352C72.4953 12.1712 72.4422 11.8367 72.374 11.4766L72.373 11.4746C72.2519 10.7277 72.1012 10.0314 71.9199 9.38672L71.8877 9.27441L72.0039 9.25488L73.6738 8.97656H71.3379V6.48535H74.6641C74.6238 6.36274 74.5825 6.23594 74.5381 6.10645H74.5371C74.2941 5.37732 74.0615 4.70874 73.8389 4.10156L73.7959 3.9834L76.292 3.53613L76.3721 3.52148L76.4062 3.59668C76.6707 4.18671 76.935 4.82763 77.1992 5.51855L77.2949 5.77246C77.3881 6.02401 77.4709 6.26216 77.5439 6.48535H80.6738V8.97656H78.0752L79.8564 9.28516L79.9756 9.30566L79.9385 9.4209C79.7156 10.1098 79.4934 10.8193 79.2705 11.5488H79.2695C79.1755 11.878 79.084 12.1882 78.9941 12.4785H81.4648C81.3448 9.66124 81.2546 6.66465 81.1943 3.48926L81.1924 3.38184H83.8672L83.8682 3.48633ZM113.554 3.92285L113.526 4.03027C113.242 5.14436 112.902 6.22655 112.507 7.27637H122.626V10.1025H111.27C110.561 11.5411 109.783 12.8003 108.935 13.8779H108.94C110.254 13.5949 111.578 13.281 112.912 12.9375C114.248 12.5731 115.502 12.1888 116.676 11.7842L117.108 11.6328C118.1 11.2788 118.966 10.9243 119.707 10.5713L119.771 10.542L119.822 10.5879L122.195 12.7051L122.046 12.7705C120.926 13.2591 119.674 13.7167 118.292 14.1436C117.778 14.3047 117.256 14.4598 116.728 14.6094C116.951 16.053 117.227 17.4538 117.555 18.8115C118.047 18.3765 118.531 17.9277 119.01 17.4658L119.226 17.2559C119.718 16.7697 120.141 16.3153 120.493 15.8926L120.562 15.8096L122.766 17.751L122.686 17.8301C121.872 18.6231 120.977 19.4255 120.002 20.2383L119.143 20.9385C118.864 21.1611 118.593 21.3736 118.33 21.5752C118.774 22.9092 119.298 24.1232 119.904 25.2168C120.749 26.7056 121.794 27.8802 123.037 28.7422L123.158 28.8262L123.039 28.9131C122.823 29.07 122.585 29.2878 122.324 29.5684C122.144 29.7788 121.969 29.9952 121.8 30.2168L121.632 30.4414C121.41 30.7436 121.229 31.0146 121.09 31.2539L121.029 31.3574L120.935 31.2832C119.543 30.1987 118.388 28.8079 117.47 27.1133L117.469 27.1123C116.572 25.4208 115.84 23.4859 115.271 21.3096H115.27C114.792 19.4189 114.401 17.413 114.093 15.293C114.081 15.2957 114.069 15.299 114.058 15.3018C113.306 15.4818 112.562 15.6497 111.826 15.8076V27.0967L116.055 25.3242V25.4814C116.055 25.8609 116.084 26.3124 116.145 26.8359C116.225 27.3401 116.306 27.7412 116.386 28.04L116.409 28.127L116.326 28.1631C114.947 28.7714 113.822 29.269 112.95 29.6543C112.079 30.0595 111.4 30.3736 110.913 30.5967C110.431 30.8379 110.07 31.0282 109.83 31.168C109.611 31.3275 109.433 31.4667 109.295 31.585L109.144 31.7139L109.124 31.5312C109.046 31.3398 108.919 31.1073 108.743 30.833C108.562 30.5715 108.371 30.3095 108.17 30.0479L108.169 30.0469C107.989 29.8064 107.832 29.6302 107.698 29.5156L107.608 29.4395L107.695 29.3594C107.949 29.1256 108.206 28.7906 108.466 28.3506C108.718 27.9046 108.848 27.3256 108.848 26.6074V14.0107L108.84 13.9961C108.673 14.204 108.503 14.4055 108.331 14.5996L108.253 14.6875L108.175 14.5996C108.021 14.4262 107.795 14.2391 107.495 14.0391L107.491 14.0371L107.488 14.0342L106.637 13.3652C106.356 13.1444 106.107 12.9754 105.891 12.8574L105.767 12.79L105.867 12.6904C106.973 11.6051 107.92 10.2468 108.706 8.61328L108.852 8.30566C109.57 6.76127 110.138 5.13638 110.555 3.43164L110.578 3.33398L113.554 3.92285ZM97.3721 23.4473C97.2365 24.0103 97.0826 24.5776 96.9062 25.1475C96.3789 26.8307 95.5368 28.4631 94.3809 30.0449C94.7459 30.268 95.1215 30.5317 95.5068 30.8359C95.9123 31.1401 96.2472 31.4239 96.5107 31.6875V31.6865C96.2473 31.4232 95.9129 31.1397 95.5078 30.8359C95.1225 30.5317 94.7469 30.268 94.3818 30.0449C95.5378 28.4631 96.3799 26.8307 96.9072 25.1475C97.0836 24.5777 97.2365 24.0102 97.3721 23.4473ZM86.6953 31.624L86.7754 31.627L86.6514 31.6191C86.666 31.6203 86.6806 31.6232 86.6953 31.624ZM86.498 31.6025C86.5262 31.6066 86.5545 31.6103 86.583 31.6133C86.5545 31.6103 86.5262 31.6066 86.498 31.6025ZM86.334 31.5732C86.367 31.5805 86.4002 31.587 86.4336 31.5928C86.4002 31.587 86.367 31.5805 86.334 31.5732ZM86.2021 31.5391C86.2317 31.5475 86.2611 31.5563 86.291 31.5635C86.2611 31.5563 86.2317 31.5475 86.2021 31.5391ZM86.0664 31.4961C86.0843 31.5025 86.1021 31.5087 86.1201 31.5146C86.1021 31.5087 86.0843 31.5025 86.0664 31.4961ZM85.9219 31.4385C85.942 31.4473 85.9621 31.4557 85.9824 31.4639C85.9621 31.4557 85.942 31.4473 85.9219 31.4385ZM101.48 31.4121L101.864 31.4131C101.641 31.4131 101.414 31.4102 101.184 31.4062C101.283 31.4079 101.382 31.4111 101.48 31.4121ZM99.5527 28.8584C99.7555 29.2031 99.9174 29.6088 100.039 30.0752C100.161 30.5619 100.242 30.9985 100.282 31.3838C100.538 31.3933 100.789 31.3993 101.036 31.4043C100.79 31.3993 100.539 31.3932 100.284 31.3838C100.244 30.9984 100.162 30.5619 100.04 30.0752C99.9184 29.6088 99.7565 29.2031 99.5537 28.8584H99.5527ZM85.749 31.3545C85.7798 31.3711 85.8106 31.3873 85.8418 31.4023C85.8106 31.3873 85.7798 31.3711 85.749 31.3545ZM85.6152 31.2773C85.6504 31.2992 85.6859 31.32 85.7217 31.3398C85.6859 31.32 85.6504 31.2992 85.6152 31.2773ZM85.4961 31.1982C85.5204 31.2153 85.5447 31.232 85.5693 31.248C85.5447 31.232 85.5204 31.2153 85.4961 31.1982ZM109.089 31.2129C109.074 31.1848 109.058 31.1562 109.042 31.127C109.058 31.1562 109.074 31.1848 109.089 31.2129ZM114.807 18.7959C114.98 19.646 115.167 20.4752 115.371 21.2832C115.939 23.4531 116.669 25.3802 117.562 27.0635C118.474 28.7468 119.621 30.1263 121 31.2012V31.2002C119.621 30.1254 118.476 28.7464 117.563 27.0635C116.671 25.3802 115.941 23.4533 115.373 21.2832C115.169 20.4751 114.98 19.6462 114.807 18.7959ZM85.335 31.0771C85.3698 31.1056 85.405 31.1329 85.4404 31.1592C85.405 31.1329 85.3698 31.1056 85.335 31.0771ZM87.8232 31.127C87.8622 31.0937 87.901 31.0578 87.9395 31.0186C87.901 31.0578 87.8622 31.0937 87.8232 31.127ZM108.762 27.9316C108.705 28.1008 108.639 28.2583 108.558 28.4023C108.294 28.8484 108.03 29.1932 107.767 29.4365C107.909 29.5582 108.071 29.7412 108.253 29.9844C108.456 30.248 108.649 30.5118 108.831 30.7754C108.907 30.8929 108.973 31.0038 109.031 31.1074C108.973 31.0039 108.907 30.8928 108.832 30.7754C108.65 30.5118 108.457 30.248 108.254 29.9844C108.071 29.7411 107.91 29.5582 107.768 29.4365C108.031 29.1932 108.295 28.8485 108.559 28.4023C108.64 28.2584 108.705 28.1007 108.762 27.9316ZM85.1885 30.9492C85.0687 30.838 84.9531 30.7128 84.8408 30.5742C84.9532 30.7128 85.0687 30.838 85.1885 30.9492ZM77.1924 29.8926C77.3242 29.994 77.4634 30.1086 77.6104 30.2354C77.7573 30.3621 77.912 30.5013 78.0742 30.6533H78.0752C77.7507 30.3491 77.456 30.0954 77.1924 29.8926C77.379 29.7709 77.5639 29.6446 77.748 29.5156C77.5639 29.6446 77.3791 29.7708 77.1924 29.8926ZM88.0205 30.9297C88.0357 30.9124 88.0513 30.8952 88.0664 30.877C88.0513 30.8952 88.0357 30.9124 88.0205 30.9297ZM79.7754 30.833C79.8046 30.8111 79.8342 30.7897 79.8633 30.7676C79.8342 30.7897 79.8046 30.8111 79.7754 30.833ZM88.1572 30.7598C88.1696 30.7431 88.1821 30.7263 88.1943 30.709C88.1821 30.7263 88.1696 30.7431 88.1572 30.7598ZM88.2705 30.5967C88.2881 30.5697 88.3057 30.542 88.3232 30.5137C88.3057 30.542 88.2881 30.5697 88.2705 30.5967ZM80.1377 30.5537C80.2182 30.4907 80.2988 30.4276 80.3789 30.3633C80.2988 30.4276 80.2182 30.4907 80.1377 30.5537ZM84.8105 30.5381C84.7735 30.4913 84.7364 30.4433 84.7002 30.3936L84.6963 30.3887C84.7337 30.4402 84.7722 30.4897 84.8105 30.5381ZM88.3896 30.4033C88.4117 30.3652 88.4342 30.3264 88.4561 30.2861C88.4342 30.3264 88.4117 30.3652 88.3896 30.4033ZM88.5049 30.1904C88.5294 30.1431 88.5548 30.095 88.5791 30.0449C88.5548 30.095 88.5294 30.1431 88.5049 30.1904ZM80.6074 30.1768C80.7048 30.0967 80.8027 30.0167 80.8994 29.9346C80.8027 30.0167 80.7048 30.0967 80.6074 30.1768ZM88.6318 29.9346C88.6557 29.8832 88.6795 29.8305 88.7031 29.7764C88.6795 29.8305 88.6557 29.8832 88.6318 29.9346ZM84.1729 29.5156C84.2218 29.6115 84.2718 29.7041 84.3223 29.7939C84.2718 29.7041 84.2218 29.6115 84.1729 29.5156ZM81.1152 29.7471C81.2035 29.6705 81.2921 29.5939 81.3799 29.5156C81.2921 29.5939 81.2035 29.6705 81.1152 29.7471ZM88.8438 29.4365C88.8151 29.5099 88.7858 29.5811 88.7568 29.6504C88.7653 29.6301 88.7748 29.6095 88.7832 29.5889L88.8438 29.4365C88.882 29.3385 88.9195 29.2356 88.9561 29.1279C88.9195 29.2355 88.882 29.3385 88.8438 29.4365ZM71.96 29.5273V29.5283H74.2109V29.5273H71.96ZM83.9404 29.0283C84.003 29.1706 84.0675 29.3071 84.1328 29.4385C84.0675 29.3071 84.003 29.1706 83.9404 29.0283ZM81.6123 29.3047C81.702 29.2228 81.7917 29.1403 81.8809 29.0566C81.7917 29.1403 81.702 29.2228 81.6123 29.3047ZM102.777 28.5537C102.656 28.7159 102.534 28.8278 102.412 28.8887L102.404 28.8916C102.407 28.8903 102.41 28.89 102.413 28.8887C102.535 28.8279 102.657 28.7168 102.778 28.5547C102.805 28.5153 102.829 28.4666 102.854 28.4102C102.829 28.4665 102.804 28.5143 102.777 28.5537ZM82.1191 28.8291C82.1959 28.7553 82.2732 28.6816 82.3496 28.6064C82.2732 28.6816 82.1959 28.7553 82.1191 28.8291ZM83.5801 28.0977C83.6266 28.2322 83.6742 28.363 83.7227 28.4902C83.6742 28.363 83.6266 28.2322 83.5801 28.0977ZM89.1562 28.4551C89.1594 28.4431 89.1629 28.4311 89.166 28.4189C89.1629 28.4311 89.1594 28.4431 89.1562 28.4551ZM82.9727 27.9766C82.8602 28.0943 82.7462 28.2095 82.6328 28.3242C82.6631 28.2935 82.6943 28.2633 82.7246 28.2324L82.9727 27.9766C83.1145 27.8283 83.2539 27.6768 83.3926 27.5244C83.4431 27.6903 83.4959 27.8515 83.5488 28.0078C83.4957 27.8511 83.4432 27.6898 83.3926 27.5234C83.2538 27.676 83.1147 27.8281 82.9727 27.9766ZM89.2354 28.1367C89.2478 28.0846 89.2613 28.0321 89.2734 27.9785C89.2613 28.0321 89.2478 28.0846 89.2354 28.1367ZM77.8916 28.1289H79.5195L79.5205 28.1279H77.8926V27.3379H77.8916V28.1289ZM86.0449 27.7188C86.0302 27.6899 86.0175 27.6593 86.0029 27.6289C86.0175 27.6593 86.0302 27.6899 86.0449 27.7188ZM89.3271 27.7305C89.3401 27.6692 89.3526 27.607 89.3652 27.5439C89.3526 27.607 89.3401 27.6692 89.3271 27.7305ZM108.845 27.6406C108.858 27.5833 108.869 27.5246 108.88 27.4648C108.869 27.5246 108.858 27.5833 108.845 27.6406ZM103.676 17.3428C103.644 18.7654 103.609 20.0281 103.568 21.1309L103.545 21.7266C103.489 23.0815 103.426 24.2114 103.355 25.1162C103.274 26.1302 103.182 26.9114 103.081 27.459L103.074 27.5029C103.076 27.4884 103.08 27.4738 103.082 27.459C103.183 26.9114 103.275 26.1303 103.356 25.1162C103.438 24.082 103.509 22.7539 103.569 21.1318C103.61 20.0289 103.644 18.7656 103.676 17.3428ZM85.9248 27.4619C85.9265 27.4659 85.9289 27.4696 85.9307 27.4736C85.9276 27.4667 85.9239 27.4601 85.9209 27.4531L85.9248 27.4619ZM87.5029 27.1113H87.5039H87.5029ZM89.4287 27.2148C89.4349 27.1812 89.4412 27.1474 89.4473 27.1133C89.4412 27.1474 89.4349 27.1812 89.4287 27.2148ZM89.5049 26.7764C89.5127 26.7289 89.5207 26.6811 89.5283 26.6328C89.5207 26.6811 89.5127 26.7289 89.5049 26.7764ZM110.174 13.71C109.766 13.8032 109.359 13.895 108.953 13.9824V26.6074L108.951 26.6953C108.952 26.6662 108.954 26.6369 108.954 26.6074V13.9824C109.36 13.895 109.766 13.8031 110.174 13.71ZM89.5908 26.2227C89.5924 26.2114 89.5941 26.1998 89.5957 26.1885L89.6338 25.9072C89.6196 26.014 89.6057 26.1193 89.5908 26.2227ZM89.4941 25.7988C89.4823 25.79 89.4704 25.7807 89.458 25.7715C89.4705 25.7807 89.4823 25.79 89.4941 25.7988ZM89.3027 25.6602C89.2881 25.6499 89.2731 25.6385 89.2578 25.6279L89.1846 25.5781C89.2261 25.6063 89.2653 25.634 89.3027 25.6602ZM77.8916 25.3604H77.8926V22.8955H77.8916V25.3604ZM74.3164 25.2549H77.7871V23.001H74.3164V25.2549ZM85.4531 24.9395C85.5268 24.8343 85.6003 24.7287 85.6729 24.6221C85.6004 24.7288 85.5268 24.8343 85.4531 24.9395ZM85.8516 24.3564C85.927 24.2427 86.002 24.1282 86.0762 24.0127C86.002 24.1282 85.927 24.2426 85.8516 24.3564ZM65.0986 24.0127C65.9268 23.842 66.7699 23.6672 67.627 23.4893V19.8975H65.0986V24.0127ZM86.5625 23.2305C86.443 23.4304 86.3204 23.6271 86.1973 23.8223C86.3204 23.6272 86.4431 23.4303 86.5625 23.2305C86.6934 23.0156 86.8211 22.7984 86.9463 22.5791C86.8211 22.7984 86.6934 23.0156 86.5625 23.2305ZM82.5557 23.6221C82.5643 23.6764 82.5733 23.7303 82.582 23.7842C82.5733 23.7303 82.5643 23.6764 82.5557 23.6221ZM82.3828 22.4463C82.3936 22.5251 82.404 22.6036 82.415 22.6816C82.404 22.6036 82.3936 22.5251 82.3828 22.4463ZM87.2275 22.0703C87.2534 22.0227 87.2801 21.9756 87.3057 21.9277C87.2801 21.9756 87.2534 22.0227 87.2275 22.0703ZM82.2275 21.2275C82.2452 21.3773 82.2629 21.5258 82.2812 21.6729C82.2629 21.5258 82.2452 21.3773 82.2275 21.2275ZM87.54 21.4746C87.5748 21.4066 87.6103 21.3389 87.6445 21.2705C87.6103 21.3389 87.5748 21.4066 87.54 21.4746ZM118.813 21.0645C118.866 21.0227 118.92 20.981 118.974 20.9385C118.92 20.9811 118.866 21.0227 118.813 21.0645ZM77.8916 20.8877H77.8926V18.5156H77.8916V20.8877ZM87.8555 20.8369C87.8999 20.744 87.9448 20.6512 87.9883 20.5576C87.9448 20.6512 87.8999 20.744 87.8555 20.8369ZM74.3164 20.7832H77.7871V18.6201H74.3164V20.7832ZM119.512 20.5039C119.534 20.4854 119.558 20.4679 119.581 20.4492L119.822 20.251C119.718 20.337 119.614 20.4205 119.512 20.5039ZM98.1094 17.9639C98.0692 18.6644 98.0137 19.386 97.9404 20.1279L97.916 20.3496C97.9241 20.2756 97.9341 20.2018 97.9414 20.1279C98.0147 19.3861 98.0692 18.6644 98.1094 17.9639ZM88.1572 20.1826C88.2038 20.0783 88.2514 19.9743 88.2969 19.8691C88.2514 19.9743 88.2038 20.0783 88.1572 20.1826ZM100.555 19.9443C100.559 19.8997 100.563 19.8551 100.567 19.8105C100.563 19.8551 100.559 19.8997 100.555 19.9443ZM88.4619 19.4766C88.5091 19.3627 88.5566 19.2487 88.6025 19.1338C88.5566 19.2487 88.5092 19.3627 88.4619 19.4766ZM81.9766 18.7822C81.9871 18.9 81.998 19.0172 82.0088 19.1338C81.998 19.0172 81.9871 18.9 81.9766 18.7822ZM118.811 17.8018C118.377 18.2132 117.938 18.6132 117.494 19.0029H117.495C117.939 18.6134 118.378 18.2131 118.811 17.8018ZM88.7471 18.7627C88.7932 18.6427 88.8391 18.5224 88.8838 18.4014C88.8391 18.5224 88.7932 18.6427 88.7471 18.7627ZM114.641 17.9482C114.687 18.1952 114.736 18.4401 114.785 18.6836C114.736 18.4401 114.687 18.1952 114.641 17.9482ZM81.8115 16.7207C81.8488 17.2401 81.8894 17.7495 81.9316 18.249C81.8894 17.7495 81.8488 17.2401 81.8115 16.7207ZM89.0186 18.0283C89.0376 17.9745 89.0583 17.9212 89.0771 17.8672L89.208 17.4805C89.1467 17.6644 89.0829 17.8468 89.0186 18.0283ZM114.076 15.1885C114.111 15.1801 114.145 15.1723 114.18 15.1641C114.316 16.1153 114.47 17.0433 114.641 17.9482C114.47 17.043 114.317 16.1146 114.181 15.1631C114.146 15.1714 114.111 15.1802 114.076 15.1885ZM120.573 15.96C120.168 16.4466 119.671 16.9743 119.083 17.542L119.03 17.5928C119.048 17.5757 119.066 17.5591 119.084 17.542C119.672 16.9743 120.169 16.4466 120.574 15.96H120.573ZM86.6699 17.3428C86.6965 17.2646 86.725 17.187 86.751 17.1084L86.7607 17.0781C86.7316 17.1669 86.6999 17.2546 86.6699 17.3428ZM65.0986 17.2852H67.627V13.6309H65.0986V17.2852ZM81.7002 15.0469C81.7305 15.557 81.7632 16.0584 81.7979 16.5508C81.7631 16.0584 81.7334 15.557 81.7031 15.0469H81.7002ZM98.1836 15.5625C98.1836 15.5428 98.1846 15.5226 98.1846 15.5029V11.0928H98.1836V15.5625ZM70.8643 12.583V15.0469L70.8652 12.583H70.8643ZM106.333 14.9629C106.333 14.9567 106.335 14.9505 106.335 14.9443V14.8926C106.335 14.9155 106.334 14.9389 106.333 14.9629ZM105.94 12.7656C106.164 12.8873 106.417 13.0601 106.701 13.2832C106.985 13.5063 107.27 13.7291 107.554 13.9521C107.858 14.1547 108.091 14.347 108.253 14.5293C108.091 14.3471 107.858 14.1545 107.555 13.9521C107.271 13.7291 106.986 13.5053 106.702 13.2822C106.419 13.0594 106.165 12.8872 105.942 12.7656C106.032 12.6781 106.116 12.5852 106.203 12.4941C106.116 12.5854 106.03 12.6779 105.94 12.7656ZM117.413 14.3008C117.632 14.2359 117.85 14.1695 118.066 14.1025C117.85 14.1695 117.632 14.2358 117.413 14.3008ZM112.938 13.0391C112.522 13.146 112.108 13.2485 111.694 13.3496C112.108 13.2484 112.524 13.1461 112.939 13.0391C113.075 13.0022 113.208 12.9631 113.342 12.9258C113.208 12.9632 113.073 13.0021 112.938 13.0391ZM76.9336 11.9736C76.8801 12.1846 76.8259 12.3878 76.7705 12.583H76.7715C76.8269 12.3879 76.8801 12.1845 76.9336 11.9736ZM81.2988 3.4873C81.3445 5.89042 81.4075 8.19088 81.4873 10.3887C81.5139 11.1214 81.5428 11.8428 81.5732 12.5527C81.5737 12.5628 81.5738 12.5729 81.5742 12.583H81.5752C81.5748 12.5729 81.5737 12.5628 81.5732 12.5527C81.482 10.4233 81.4076 8.19115 81.3506 5.85645L81.2998 3.4873H81.2988ZM72.4775 11.457C72.3559 10.7068 72.204 10.0072 72.0215 9.3584L74.0283 9.02344L72.0205 9.3584C72.0661 9.52062 72.1105 9.68594 72.1523 9.85449C72.2778 10.3602 72.3863 10.8943 72.4775 11.457ZM74.1279 8.99023C74.3322 9.60314 74.5059 10.2869 74.6484 11.04C74.7654 11.5811 74.851 12.061 74.9053 12.4785H76.6914C76.8192 12.0218 76.9422 11.5214 77.0596 10.9785V10.9766L77.126 10.6992C77.2739 10.0632 77.3827 9.49002 77.4531 8.97949L77.4541 8.97656H74.123L74.1279 8.99023ZM74.7861 12.3945C74.7753 12.3163 74.7649 12.2358 74.752 12.1533C74.7649 12.2358 74.7753 12.3163 74.7861 12.3945ZM74.7158 11.9355C74.706 11.8782 74.6954 11.82 74.6846 11.7607C74.6954 11.82 74.706 11.8782 74.7158 11.9355ZM119.752 10.666C118.9 11.0716 117.886 11.4772 116.71 11.8828L116.682 11.8926C116.691 11.8892 116.701 11.8862 116.711 11.8828C117.887 11.4774 118.9 11.0715 119.752 10.666ZM86.4717 5.29199C86.7773 5.84205 87.0827 6.45316 87.3877 7.12402L87.5 7.36621C87.7602 7.93115 87.9973 8.48145 88.2109 9.01562L88.2998 9.24121C88.5004 9.76062 88.655 10.2268 88.7627 10.6396L88.7861 10.7305L86.3633 11.6602L86.3379 11.54C86.2502 11.1193 86.1164 10.6429 85.9355 10.1113L85.8545 9.87988C85.6323 9.25383 85.3796 8.61737 85.0967 7.9707V7.96973C84.8138 7.30304 84.5213 6.6868 84.2188 6.12207L84.1611 6.01465L86.3447 5.24414L86.4277 5.21484L86.4717 5.29199ZM85.7803 9.37207C85.8398 9.53037 85.8984 9.68769 85.9541 9.84473C86.0099 10.002 86.0612 10.1553 86.1094 10.3037C86.2056 10.6001 86.2867 10.8787 86.3525 11.1396L86.4404 11.5186L86.3535 11.1396C86.2547 10.748 86.1214 10.3162 85.9541 9.84473C85.8984 9.68769 85.8398 9.53037 85.7803 9.37207ZM74.6396 11.5186C74.6134 11.384 74.5845 11.2451 74.5537 11.1016C74.5845 11.2451 74.6134 11.384 74.6396 11.5186ZM95.0801 11.0928H95.082V8.38477H95.0801V11.0928ZM65.0986 11.0488H67.627V7.39453H65.0986V11.0488ZM110.822 10.7451C110.842 10.7076 110.863 10.6706 110.883 10.6328C110.863 10.6706 110.842 10.7076 110.822 10.7451ZM88.6143 10.5C88.5988 10.445 88.5835 10.3889 88.5664 10.332C88.5835 10.3889 88.5988 10.445 88.6143 10.5ZM88.4941 10.1025C88.4793 10.0566 88.465 10.0099 88.4492 9.96289C88.465 10.0099 88.4793 10.0566 88.4941 10.1025ZM88.3711 9.73926C88.3517 9.68435 88.3322 9.62857 88.3115 9.57227C88.3322 9.62857 88.3517 9.68435 88.3711 9.73926ZM88.2246 9.33887C88.2171 9.31914 88.2098 9.29919 88.2021 9.2793L88.165 9.18652C88.1852 9.2379 88.2054 9.28854 88.2246 9.33887ZM71.4424 6.58984V8.87207H80.5693V8.87109H71.4434V6.58984H71.4424ZM110.656 3.45605C110.21 5.28119 109.592 7.01556 108.801 8.6582L108.758 8.74414C108.772 8.71539 108.788 8.68713 108.802 8.6582C109.593 7.01554 110.21 5.28122 110.656 3.45605ZM99.127 4.24707C99.4311 4.896 99.7349 5.61635 100.039 6.40723C100.31 7.11183 100.507 7.73661 100.633 8.28027C100.507 7.73667 100.311 7.11172 100.04 6.40723C99.7359 5.61636 99.4321 4.896 99.1279 4.24707L101.621 3.42578L99.127 4.24707ZM112.354 7.38086H112.355C112.371 7.3402 112.384 7.29857 112.399 7.25781C112.384 7.29879 112.369 7.33998 112.354 7.38086ZM61.4033 7.29004H61.4043V4.7041H61.4033V7.29004ZM84.3105 6.07324C84.3865 6.21504 84.4624 6.35969 84.5371 6.50781H84.5381C84.4634 6.3597 84.3875 6.21504 84.3115 6.07324H84.3105ZM103.075 6.85254C103.061 6.81108 103.047 6.76897 103.032 6.72656C103.047 6.76898 103.061 6.81108 103.075 6.85254ZM112.63 6.62793C112.647 6.57949 112.664 6.53099 112.681 6.48242C112.664 6.53099 112.647 6.57949 112.63 6.62793ZM77.3965 6.37695C77.369 6.2952 77.3406 6.21145 77.3105 6.12598C77.3407 6.21143 77.3689 6.29522 77.3965 6.37695ZM112.899 5.82715C112.917 5.77317 112.934 5.71918 112.951 5.66504C112.934 5.71918 112.917 5.77317 112.899 5.82715ZM77.2021 5.82715C77.2 5.82142 77.1984 5.81531 77.1963 5.80957L77.1465 5.67676C77.1656 5.72741 77.1839 5.77763 77.2021 5.82715ZM74.8086 6.58594C74.7554 6.42136 74.6985 6.25046 74.6377 6.07324C74.516 5.70828 74.3969 5.35799 74.2803 5.02344H74.2793C74.3959 5.35808 74.515 5.70817 74.6367 6.07324C74.698 6.25194 74.756 6.424 74.8096 6.58984L74.8086 6.58594ZM85.1992 30.959C85.2355 30.9923 85.2717 31.0248 85.3086 31.0557C85.2717 31.0248 85.2355 30.9923 85.1992 30.959ZM83.7549 28.5762C83.8157 28.7324 83.8768 28.8834 83.9404 29.0283C83.8767 28.8834 83.8157 28.7324 83.7549 28.5762ZM85.75 19.6904C85.8262 19.52 85.9016 19.3488 85.9746 19.1758C85.9016 19.3487 85.8262 19.52 85.75 19.6904ZM72.6494 12.5449C72.6317 12.4012 72.6099 12.2519 72.5859 12.0967C72.6098 12.2519 72.6317 12.4012 72.6494 12.5449Z" fill="#141A1F"/>
</svg>
